HIERARCHY
ROOT Hips
{
	OFFSET	0.000000	0.000000	0.000000
	CHANNELS 6 Xposition Yposition Zposition Zrotation Xrotation Yrotation
	JOINT LeftHip
	{
		OFFSET	10.628554	-12.025425	0.145870
		CHANNELS 3 Zrotation Xrotation Yrotation
		JOINT LeftKnee
		{
			OFFSET	0.063751	-35.282885	-0.125152
			CHANNELS 3 Zrotation Xrotation Yrotation
			JOINT LeftAnkle
			{
				OFFSET	-1.605697	-35.971224	-3.706495
				CHANNELS 3 Zrotation Xrotation Yrotation
				JOINT LeftAnkleEnd
				{
					OFFSET	0.623245	-4.766945	-2.510598
					CHANNELS 3 Zrotation Xrotation Yrotation
					End Site
					{
						OFFSET	0.568289	0.000024	14.236648
					}
				}
			}
		}
	}
	JOINT RightHip
	{
		OFFSET	-10.628554	-12.025425	0.145870
		CHANNELS 3 Zrotation Xrotation Yrotation
		JOINT RightKnee
		{
			OFFSET	-0.063751	-35.282885	-0.125152
			CHANNELS 3 Zrotation Xrotation Yrotation
			JOINT RightAnkle
			{
				OFFSET	1.605697	-35.971224	-3.706495
				CHANNELS 3 Zrotation Xrotation Yrotation
				JOINT RightAnkleEnd
				{
					OFFSET	-0.623245	-4.766945	-2.510598
					CHANNELS 3 Zrotation Xrotation Yrotation
					End Site
					{
						OFFSET	-0.568289	0.000024	14.236648
					}
				}
			}
		}
	}
	JOINT Chest
	{
		OFFSET	0.000000	12.026417	-0.714291
		CHANNELS 3 Zrotation Xrotation Yrotation
		JOINT Chest1
		{
			OFFSET	0.000000	9.058883	0.000000
			CHANNELS 3 Zrotation Xrotation Yrotation
			JOINT LeftCollar
			{
				OFFSET	3.957193	15.332403	-1.829478
				CHANNELS 3 Zrotation Xrotation Yrotation
				JOINT LeftShoulder
				{
					OFFSET	10.550170	-2.240910	0.518958
					CHANNELS 3 Zrotation Xrotation Yrotation
					JOINT LeftElbow
					{
						OFFSET	4.297553	-25.599643	-0.166695
						CHANNELS 3 Zrotation Xrotation Yrotation
						JOINT LeftWrist
						{
							OFFSET	2.822981	-22.410623	4.642079
							CHANNELS 3 Zrotation Xrotation Yrotation
							End Site
							{
								OFFSET	1.134968	-7.923276	1.802445
							}
						}
					}
				}
			}
			JOINT RightCollar
			{
				OFFSET	-3.957193	15.332403	-1.829478
				CHANNELS 3 Zrotation Xrotation Yrotation
				JOINT RightShoulder
				{
					OFFSET	-10.550170	-2.240910	0.518958
					CHANNELS 3 Zrotation Xrotation Yrotation
					JOINT RightElbow
					{
						OFFSET	-4.297553	-25.599643	-0.166695
						CHANNELS 3 Zrotation Xrotation Yrotation
						JOINT RightWrist
						{
							OFFSET	-2.822981	-22.410623	4.642079
							CHANNELS 3 Zrotation Xrotation Yrotation
							End Site
							{
								OFFSET	-1.134968	-7.923276	1.802445
							}
						}
					}
				}
			}
			JOINT Neck
			{
				OFFSET	0.000000	20.347508	-0.117170
				CHANNELS 3 Zrotation Xrotation Yrotation
				JOINT Head
				{
					OFFSET	0.000000	9.048420	0.880189
					CHANNELS 3 Zrotation Xrotation Yrotation
					End Site
					{
						OFFSET	0.000000	13.896797	-0.059005
					}
				}
			}
		}
	}
}
MOTION
Frames:     6
Frame Time: 0.016667
-27.322864	72.061763	455.936311	6.923996	-15.263217	-74.997063	-1.271060	-20.214678	12.805848	30.983139	55.887383	-31.491217	-34.035378	-33.282440	-11.227579	0.	0.	0.	-1.339587	-38.675316	-10.978871	-23.611338	102.116135	14.106637	-1.522801	-14.954836	21.629408	0.	0.	0.	-14.293820	20.870476	1.025698	-4.846028	-2.062123	6.905905	13.455044	-10.715790	1.908311	71.501602	9.576430	12.200425	10.579669	2.585977	-3.335878	22.192890	8.744682	-28.008213	-2.495294	-1.759834	2.697289	-19.600960	3.056487	-33.383492	-32.217796	-107.149292	-7.160088	-39.973526	-22.763096	27.099789	-1.689775	3.744731	2.162930	14.417440	-14.307974	-17.825598	
-27.428127	72.025351	456.183311	6.438104	-14.477409	-76.144516	-0.017851	-19.967190	13.897868	32.233406	56.428082	-32.574017	-35.586807	-32.985432	-12.420444	0.	0.	0.	0.151271	-38.979454	-9.256701	-31.147398	100.679550	22.673756	-1.343515	-15.297983	20.510891	0.	0.	0.	-13.952728	21.368584	0.398989	-4.814240	-1.993955	5.943291	13.787910	-10.647951	2.059555	69.911224	7.237387	13.330312	9.938845	2.605739	-4.173779	20.863554	9.046132	-27.403187	-1.712410	-1.197428	3.143438	-17.816557	5.103971	-33.011402	-38.694283	-109.915718	-13.965198	-40.738140	-24.626904	30.263462	-1.479265	2.409864	1.315558	13.659910	-15.086414	-18.706711	
-25.871671	71.732481	456.336054	5.711352	-13.731914	-76.922104	0.794396	-21.915316	15.735223	37.163891	57.844833	-37.602715	-35.688686	-33.154991	-12.296748	0.	0.	0.	0.694144	-39.455330	-8.067566	-39.427727	100.001244	31.234148	-0.930925	-15.672565	19.857143	0.	0.	0.	-13.449044	22.000059	0.359946	-4.713191	-1.694870	3.930979	14.095370	-10.350192	2.200963	67.843666	4.905761	14.675893	8.763642	2.571363	-4.534083	20.412651	8.398909	-26.599710	-0.893806	-0.620634	3.747827	-17.151283	7.036487	-32.091793	-41.368690	-111.056442	-18.271454	-41.267994	-26.352180	31.326233	-1.126114	1.254299	0.835675	13.000607	-15.571699	-19.082047	
-25.865402	71.684955	456.463720	5.278594	-13.402616	-77.189201	1.273175	-21.576157	15.906932	37.323566	58.136570	-38.102192	-35.426483	-33.732162	-11.986196	0.	0.	0.	0.552772	-39.723473	-7.661472	-43.725288	100.004433	35.335289	-0.743942	-15.846389	19.685261	0.	0.	0.	-13.252905	22.580315	-0.095414	-4.576441	-1.682264	3.269296	14.265293	-10.192611	2.230017	66.633514	3.750902	15.185558	8.062507	2.568066	-4.467451	20.512186	7.843060	-26.147505	-0.479194	-0.373204	4.046675	-17.002832	7.907720	-31.651718	-41.443756	-111.103340	-19.136290	-41.556145	-26.935457	31.110340	-0.912960	0.739755	0.836840	12.770057	-15.841789	-19.262062	
-25.138560	71.483136	456.732076	4.817850	-13.101598	-77.436974	1.304589	-22.234583	16.141678	39.163849	58.938435	-39.734417	-35.070801	-34.543003	-11.703611	0.	0.	0.	0.141470	-40.013813	-7.332337	-47.758820	100.257813	39.031853	-0.649651	-17.308393	18.481445	0.	0.	0.	-13.082113	23.206648	-0.475302	-4.422818	-1.624939	2.596008	14.419919	-10.090170	2.165350	65.340164	2.506388	15.652076	7.414225	2.644919	-4.447158	20.651684	7.240844	-25.698671	-0.132504	-0.207639	4.225093	-16.802683	8.632623	-31.282064	-40.929600	-110.830910	-19.143026	-41.943359	-27.225866	30.620272	-0.718643	0.269035	0.785106	12.553100	-16.705894	-20.615633	
-24.163198	71.747136	457.215845	3.269902	-12.345138	-78.368782	2.177965	-21.514574	16.389528	39.017391	59.620373	-39.053719	-34.571053	-34.870331	-11.747010	0.	0.	0.	-2.030772	-40.791374	-7.242759	-54.452171	101.284164	44.382050	-0.430334	-16.774849	19.798061	0.	0.	0.	-13.028718	24.951168	-1.277313	-3.721132	-0.337222	0.202837	14.648520	-10.245821	2.252197	61.267769	-1.365305	16.858429	3.770421	0.703248	-6.131946	21.324755	5.589237	-24.420969	0.597040	-0.530865	3.959499	-15.795323	9.439018	-31.877327	-36.152615	-106.574768	-14.400228	-43.933128	-26.586397	28.230068	0.560228	-1.312315	-0.641199	12.954651	-17.221855	-18.026602	
